REM DIRINDEX 1\2,1\4,1\5,1\6,1\7,1\3\8,1\3\9,1\3\10
REM DIRNAME cjc113,folder01,folder02,folder03,folder04,folder05,folder06,folder07,folder08,folder09
TITLE ""
FILE "DB4500_5th_2A_33.mp3" MP3
  TRACK 01 AUDIO
    TITLE "8:cjc113_1231"
    INDEX 01 00:00:00
  TRACK 02 AUDIO
    TITLE "0:"
    INDEX 01 00:01:13
  TRACK 03 AUDIO
    TITLE "9:cjc113_1232"
    INDEX 01 00:01:36
  TRACK 04 AUDIO
    TITLE "0:"
    INDEX 01 00:02:63
  TRACK 05 AUDIO
    TITLE "10:cjc113_1233"
    INDEX 01 00:03:08
  TRACK 06 AUDIO
    TITLE "0:"
    INDEX 01 00:06:24
  TRACK 07 AUDIO
    TITLE "8:cjc113_1234"
    INDEX 01 00:06:71
  TRACK 08 AUDIO
    TITLE "0:"
    INDEX 01 00:08:44
  TRACK 09 AUDIO
    TITLE "9:cjc113_1235"
    INDEX 01 00:08:62
  TRACK 10 AUDIO
    TITLE "0:"
    INDEX 01 00:10:33
  TRACK 11 AUDIO
    TITLE "10:cjc113_1236"
    INDEX 01 00:10:51
  TRACK 12 AUDIO
    TITLE "0:"
    INDEX 01 00:14:09
  TRACK 13 AUDIO
    TITLE "8:cjc113_1237"
    INDEX 01 00:14:54
  TRACK 14 AUDIO
    TITLE "0:"
    INDEX 01 00:15:62
  TRACK 15 AUDIO
    TITLE "9:cjc113_1238"
    INDEX 01 00:16:10
  TRACK 16 AUDIO
    TITLE "0:"
    INDEX 01 00:17:29
  TRACK 17 AUDIO
    TITLE "10:cjc113_1239"
    INDEX 01 00:17:51
  TRACK 18 AUDIO
    TITLE "0:"
    INDEX 01 00:20:39
  TRACK 19 AUDIO
    TITLE "8:cjc113_1240"
    INDEX 01 00:21:13
  TRACK 20 AUDIO
    TITLE "0:"
    INDEX 01 00:22:32
  TRACK 21 AUDIO
    TITLE "9:cjc113_1241"
    INDEX 01 00:22:52
  TRACK 22 AUDIO
    TITLE "0:"
    INDEX 01 00:24:04
  TRACK 23 AUDIO
    TITLE "10:cjc113_1242"
    INDEX 01 00:24:27
  TRACK 24 AUDIO
    TITLE "0:"
    INDEX 01 00:28:33
  TRACK 25 AUDIO
    TITLE "8:cjc113_1243"
    INDEX 01 00:29:03
  TRACK 26 AUDIO
    TITLE "0:"
    INDEX 01 00:30:14
  TRACK 27 AUDIO
    TITLE "9:cjc113_1244"
    INDEX 01 00:30:36
  TRACK 28 AUDIO
    TITLE "0:"
    INDEX 01 00:31:49
  TRACK 29 AUDIO
    TITLE "10:cjc113_1245"
    INDEX 01 00:31:69
  TRACK 30 AUDIO
    TITLE "0:"
    INDEX 01 00:35:17
  TRACK 31 AUDIO
    TITLE "8:cjc113_1246"
    INDEX 01 00:36:01
  TRACK 32 AUDIO
    TITLE "0:"
    INDEX 01 00:37:14
  TRACK 33 AUDIO
    TITLE "9:cjc113_1247"
    INDEX 01 00:37:38
  TRACK 34 AUDIO
    TITLE "0:"
    INDEX 01 00:38:59
  TRACK 35 AUDIO
    TITLE "10:cjc113_1248"
    INDEX 01 00:39:07
  TRACK 36 AUDIO
    TITLE "0:"
    INDEX 01 00:44:12
  TRACK 37 AUDIO
    TITLE "8:cjc113_1249"
    INDEX 01 00:44:60
  TRACK 38 AUDIO
    TITLE "0:"
    INDEX 01 00:46:06
  TRACK 39 AUDIO
    TITLE "9:cjc113_1250"
    INDEX 01 00:46:27
  TRACK 40 AUDIO
    TITLE "0:"
    INDEX 01 00:47:38
  TRACK 41 AUDIO
    TITLE "10:cjc113_1251"
    INDEX 01 00:47:60
  TRACK 42 AUDIO
    TITLE "0:"
    INDEX 01 00:50:68
  TRACK 43 AUDIO
    TITLE "8:cjc113_1252"
    INDEX 01 00:51:40
  TRACK 44 AUDIO
    TITLE "0:"
    INDEX 01 00:52:49
  TRACK 45 AUDIO
    TITLE "9:cjc113_1253"
    INDEX 01 00:52:73
  TRACK 46 AUDIO
    TITLE "0:"
    INDEX 01 00:54:11
  TRACK 47 AUDIO
    TITLE "10:cjc113_1254"
    INDEX 01 00:54:32
  TRACK 48 AUDIO
    TITLE "0:"
    INDEX 01 00:56:49
  TRACK 49 AUDIO
    TITLE "10:cjc113_1255"
    INDEX 01 00:57:56
  TRACK 50 AUDIO
    TITLE "0:"
    INDEX 01 01:00:25
  TRACK 51 AUDIO
    TITLE "8:cjc113_1256"
    INDEX 01 01:00:72
  TRACK 52 AUDIO
    TITLE "0:"
    INDEX 01 01:02:18
  TRACK 53 AUDIO
    TITLE "9:cjc113_1257"
    INDEX 01 01:02:42
  TRACK 54 AUDIO
    TITLE "0:"
    INDEX 01 01:03:63
  TRACK 55 AUDIO
    TITLE "10:cjc113_1258"
    INDEX 01 01:04:13
  TRACK 56 AUDIO
    TITLE "0:"
    INDEX 01 01:06:57
  TRACK 57 AUDIO
    TITLE "8:cjc113_1259"
    INDEX 01 01:07:29
  TRACK 58 AUDIO
    TITLE "0:"
    INDEX 01 01:08:31
  TRACK 59 AUDIO
    TITLE "9:cjc113_1260"
    INDEX 01 01:08:56
  TRACK 60 AUDIO
    TITLE "0:"
    INDEX 01 01:09:67
  TRACK 61 AUDIO
    TITLE "10:cjc113_1261"
    INDEX 01 01:10:12
  TRACK 62 AUDIO
    TITLE "0:"
    INDEX 01 01:13:00
  TRACK 63 AUDIO
    TITLE "8:cjc113_1262"
    INDEX 01 01:13:47
  TRACK 64 AUDIO
    TITLE "0:"
    INDEX 01 01:14:57
  TRACK 65 AUDIO
    TITLE "9:cjc113_1263"
    INDEX 01 01:15:05
  TRACK 66 AUDIO
    TITLE "0:"
    INDEX 01 01:16:05
  TRACK 67 AUDIO
    TITLE "10:cjc113_1264"
    INDEX 01 01:16:28
  TRACK 68 AUDIO
    TITLE "0:"
    INDEX 01 01:19:36
